<svg class="svg-icon" style="width: 1em; height: 1em;vertical-align: middle;fill: currentColor;overflow: hidden;" viewBox="0 0 1024 1024" version="1.1" xmlns="http://www.w3.org/2000/svg"><path d="M511.805572 67.64668c122.374118 0 233.840816 49.084928 314.474274 130.036635l0 0c80.276325 80.314187 130.073474 191.781908 130.073474 313.766147 0 123.047454-49.79715 234.196926-130.073474 314.829362l-3.171226 2.426259c-79.56308 78.917374-189.642175 127.647215-311.303049 127.647215-122.340349 0-233.809093-49.79715-314.439482-130.073474l0 0 0 0C116.764354 745.646388 67.64668 634.496915 67.64668 511.449461c0-121.984239 49.117674-233.452983 129.71941-313.766147l2.813069-2.422166C280.100396 116.019387 390.857942 67.64668 511.805572 67.64668L511.805572 67.64668zM628.548436 324.94679 628.548436 324.94679 511.805572 442.077487 395.064754 324.94679c-19.609617-19.252483-50.476625-19.252483-70.117964 0-18.896372 19.636223-18.896372 50.831712 0 70.111824l116.742864 116.39187L324.94679 628.548436c-18.896372 19.640316-18.896372 50.831712 0 70.116941 19.642362 19.284205 50.508347 19.284205 70.117964 0l116.740818-117.066229 116.742864 117.066229c19.640316 19.284205 50.831712 19.284205 70.116941 0 18.960841-19.284205 18.960841-50.476625 0-70.116941l-117.066229-117.098975 117.066229-116.39187c18.960841-19.280112 18.960841-51.183729 0-70.111824C679.380148 305.694307 648.188752 305.694307 628.548436 324.94679L628.548436 324.94679zM756.163929 267.124873 756.163929 267.124873c-62.384839-62.383816-148.647505-100.984972-244.358357-100.984972-94.610798 0-179.805132 38.245046-242.221694 98.882078l-2.459005 2.459005c-62.060451 62.383816-101.308337 148.969846-101.308337 243.968477 0 96.066963 39.248909 182.329629 101.308337 244.708328 62.739926 62.420655 149.325957 101.669564 244.680698 101.669564 94.319156 0 179.870624-38.213323 242.253416-99.561553l2.104941-2.108011c63.125713-62.378699 101.662401-148.641365 101.662401-244.708328 0-94.998631-38.536688-181.585685-101.662401-243.968477L756.163929 267.124873 756.163929 267.124873z"  /></svg>